<svg xmlns="http://www.w3.org/2000/svg" width="61" height="22" fill="none"><path fill="#727174" d="M14.81 21.44a1.107 1.107 0 0 1-1.105-1.107v-6.7a1.107 1.107 0 0 1 1.106-1.107h6.437a1.085 1.085 0 0 1 .823.368l1.163 1.292 1.212-1.307a1.099 1.099 0 0 1 .813-.352h5.114a4.426 4.426 0 0 1 2.47.614 1.1 1.1 0 0 1 .977-.614h3.7a4.978 4.978 0 0 1 2.447.445c.08.047.136.11.212.164a1.099 1.099 0 0 1 .977-.609h5.34a1.088 1.088 0 0 1 .953.578 3.673 3.673 0 0 1 2.107-.578h3.207a1.092 1.092 0 0 1 1.03.74 3.555 3.555 0 0 1 2.3-.74h3.208a1.105 1.105 0 0 1 1.107 1.107v1.427a1.107 1.107 0 0 1-.506.93.44.44 0 0 1 .035.031 2.952 2.952 0 0 1 .8 2.194c0 2.015-1.352 3.22-3.62 3.22h-3.116a1.1 1.1 0 0 1-1.016-.673 4.095 4.095 0 0 1-2.406.673H47.46a1.083 1.083 0 0 1-.48-.12c-.15.076-.314.117-.481.12h-5.344a1.095 1.095 0 0 1-.488-.125c-.15.08-.318.124-.49.125h-1.604a1.107 1.107 0 0 1-1.107-1.1v-1.333c-.075 0-.18-.01-.326-.01h-.6v1.343a1.105 1.105 0 0 1-1.107 1.1H33.82a1.105 1.105 0 0 1-1.107-1.1v-1.7a4.684 4.684 0 0 1-2.434.56h-.89v1.143a1.105 1.105 0 0 1-1.107 1.1h-3.111a1.1 1.1 0 0 1-.827-.37l-1.16-1.3-1.222 1.321a1.1 1.1 0 0 1-.811.356l-6.341-.006Zm26.346-1.107h5.34v-1.389l-3.748-.008v-1.33h3.658v-1.368h-3.657V15.02h3.749v-1.384h-5.342v6.698Zm-4.016-2.445c.586 0 .942.056 1.172.295.3.312.26.91.26 1.312v.84h1.607v-1.33a1.94 1.94 0 0 0-.265-1.222 1.7 1.7 0 0 0-.78-.563 1.883 1.883 0 0 0 1.134-1.785 1.57 1.57 0 0 0-.823-1.486 3.968 3.968 0 0 0-1.926-.314h-3.7v6.7h1.609v-2.447h1.712ZM25.173 20.33h3.11v-2.247h2c1.4 0 2.789-.383 2.789-2.24 0-1.859-1.43-2.212-2.7-2.212h-5.116l-2.037 2.2-1.972-2.2H14.81v6.7h6.345l2.049-2.216 1.968 2.215Zm28.83 0h3.118c1.609.008 2.508-.665 2.508-2.109a1.87 1.87 0 0 0-.48-1.42 2.6 2.6 0 0 0-1.828-.539l-.86-.025c-.21.01-.422-.015-.624-.076a.564.564 0 0 1-.108-.982 1.08 1.08 0 0 1 .643-.122h2.935v-1.43H56.1c-1.68 0-2.29 1.02-2.29 1.993 0 2.118 1.876 2.023 3.372 2.072a.839.839 0 0 1 .57.148.566.566 0 0 1 .195.442.599.599 0 0 1-.187.438.92.92 0 0 1-.651.166h-3.106v1.444Zm-6.541 0h3.118c1.609.008 2.506-.665 2.506-2.109a1.86 1.86 0 0 0-.481-1.42 2.6 2.6 0 0 0-1.826-.539l-.86-.025c-.21.01-.422-.015-.624-.076a.56.56 0 0 1-.108-.982 1.08 1.08 0 0 1 .642-.122h2.937v-1.43h-3.21c-1.68 0-2.29 1.02-2.29 1.993 0 2.118 1.877 2.023 3.372 2.072a.844.844 0 0 1 .57.148.566.566 0 0 1 .195.442.599.599 0 0 1-.187.438.925.925 0 0 1-.653.166h-3.1l-.001 1.444ZM24.232 17l2.459-2.64v5.37L24.23 17Zm-7.823 1.942V17.6h3.513v-1.363H16.41V15.02h4.01l1.752 1.95-1.828 1.967-3.935.005Zm11.877-2.218v-1.706h2.087c.579 0 .977.235.979.824.002.59-.383.882-1 .882h-2.066Zm7.145-.2v-1.5h1.972c.26-.024.523.018.764.121a.644.644 0 0 1 .334.6.724.724 0 0 1-.331.644 1.555 1.555 0 0 1-.794.136H35.43ZM13.956 9.91a1.107 1.107 0 0 1-1.011-.658l-.21-.475V8.8a1.105 1.105 0 0 1-1.106 1.105h-3.26a1.1 1.1 0 0 1-1.023-.682l-.333-.809H5.156l-.338.814a1.106 1.106 0 0 1-1.02.681H2.063a1.1 1.1 0 0 1-1.016-1.54L3.91 1.67A1.108 1.108 0 0 1 4.928 1h2.377a1.107 1.107 0 0 1 1.016.67l.6 1.4v-.963A1.106 1.106 0 0 1 10.028 1h2.613a1.11 1.11 0 0 1 1 .643l1.047 2.274.956-2.24A1.106 1.106 0 0 1 16.656 1h2.668c.215.006.424.075.6.2a1.08 1.08 0 0 1 .6-.2h5.346c.197.005.389.064.554.171.165-.106.357-.165.553-.17h3.679a4.709 4.709 0 0 1 2.5.468c.07.048.136.1.2.155A1.1 1.1 0 0 1 34.335 1h1.635a1.091 1.091 0 0 1 1.072.94A4.392 4.392 0 0 1 40.047 1h1.546a1.1 1.1 0 0 1 .663.22 1.1 1.1 0 0 1 .66-.22h2.4a1.1 1.1 0 0 1 1.015.67l.588 1.375v-.94A1.106 1.106 0 0 1 48.023 1h2.44a1.11 1.11 0 0 1 .946.534l.76 1.262v-.69A1.105 1.105 0 0 1 53.276 1h1.638a1.107 1.107 0 0 1 1.106 1.106V8.8a1.104 1.104 0 0 1-1.106 1.11h-2.266a1.11 1.11 0 0 1-.948-.534l-.982-1.629V8.8a1.104 1.104 0 0 1-1.106 1.11h-3.256a1.105 1.105 0 0 1-1.021-.68l-.338-.814H43.15l-.326.8a1.1 1.1 0 0 1-1.02.693H39.93a4.642 4.642 0 0 1-2.9-.89 1.092 1.092 0 0 1-1.065.89h-1.631a1.09 1.09 0 0 1-.5-.134c-.153.085-.325.13-.5.134h-1.611a1.108 1.108 0 0 1-1.107-1.1l-.006-.845v-.147c0-.09 0-.225-.005-.338-.073 0-.172-.009-.311-.009h-.612v1.335a1.106 1.106 0 0 1-1.106 1.106h-1.6a1.079 1.079 0 0 1-.555-.17 1.069 1.069 0 0 1-.554.17H20.52a1.087 1.087 0 0 1-.6-.2 1.092 1.092 0 0 1-.6.2h-1.634a1.1 1.1 0 0 1-1.106-1.1V8.78l-.212.474a1.1 1.1 0 0 1-1.011.66l-1.402-.003Zm38.69-1.11h2.269V2.1h-1.64v4.67L50.464 2.1h-2.44v6.34L45.315 2.1h-2.4l-2.26 5.271h-.716a1.548 1.548 0 0 1-1.116-.346 2.31 2.31 0 0 1-.442-1.57 2.21 2.21 0 0 1 .459-1.519 1.537 1.537 0 0 1 1.23-.4h1.516V2.1H40.04a3.243 3.243 0 0 0-2.431.78 3.599 3.599 0 0 0-.857 2.621 3.361 3.361 0 0 0 .859 2.557 3.356 3.356 0 0 0 2.316.74h1.875l.6-1.494h3.327l.627 1.496h3.257V3.776L52.647 8.8Zm-18.311 0h1.635V2.1h-1.635v6.7Zm-7.361 0h1.6V6.366h1.716a1.568 1.568 0 0 1 1.167.286c.228.393.317.85.252 1.3l.008.845h1.615v-1.31a1.916 1.916 0 0 0-.266-1.228 1.868 1.868 0 0 0-.793-.564 1.886 1.886 0 0 0 1.13-1.785 1.563 1.563 0 0 0-.81-1.484 3.763 3.763 0 0 0-1.937-.32h-3.682V8.8Zm-6.455 0h5.347V7.417H22.12V6.08h3.658V4.707H22.12V3.5h3.746V2.1H20.52l-.001 6.7Zm-2.834 0h1.64V2.1h-2.67l-1.92 4.548L12.64 2.1h-2.614v6.347L7.302 2.1H4.926l-2.87 6.7h1.74l.622-1.494h3.338L8.368 8.8h3.258V3.552l2.33 5.248h1.4l2.32-5.246.009 5.246Zm21.933-4.07c-.098.228-.14.477-.127.725a1.7 1.7 0 0 0 .127.78c.103.024.209.034.315.032l.695-1.62h-.55c-.375 0-.414.037-.46.082Zm3.362 1.183 1.1-2.669 1.11 2.67h-2.21Zm-37.988 0 1.087-2.669 1.1 2.67H4.992Zm23.584-.925V3.5h1.972c.259-.02.519.022.759.121a.612.612 0 0 1 .336.592.688.688 0 0 1-.33.636c-.246.117-.52.164-.791.137l-1.946.002Z"/></svg>