<svg width="19" height="14" viewBox="0 0 19 14" fill="none" xmlns="http://www.w3.org/2000/svg">
  <path
    d="M0.757812 7.43604C0.691809 7.29999 0.657715 7.15072 0.657715 6.99951C0.657715 6.8483 0.691809 6.69903 0.757812 6.56299C0.888812 6.29499 4.00571 0 9.65771 0C15.3097 0 18.4291 6.29999 18.5581 6.56299C18.6241 6.69903 18.6582 6.8483 18.6582 6.99951C18.6582 7.15072 18.6241 7.29999 18.5581 7.43604C18.4271 7.70504 15.3087 14 9.65771 14C4.00671 14 0.889812 7.70004 0.757812 7.43604ZM2.7959 6.99902C3.5439 8.28902 6.00972 11.999 9.65771 11.999C13.3217 11.999 15.777 8.29102 16.522 6.99902C15.774 5.70902 13.3077 1.99902 9.65771 1.99902C6.00771 1.99902 3.5409 5.70602 2.7959 6.99902Z"
    fill="#727174" />
  <line x1="2" y1="2" x2="17" y2="12" stroke="#727174" stroke-width="2" stroke-linecap="round" />
</svg>