<svg xmlns="http://www.w3.org/2000/svg" width="24" height="24" fill="none"><path fill="#B92770" d="M20.788 24c-.1 0-.193 0-.289-.013h-.018a23.03 23.03 0 0 1-9.978-3.542 22.7 22.7 0 0 1-6.938-6.924A22.928 22.928 0 0 1 .014 3.512v-.016A3.21 3.21 0 0 1 3.209 0h3.342a3.226 3.226 0 0 1 3.18 2.759v.009c.13.985.372 1.952.72 2.883a3.213 3.213 0 0 1-.724 3.383l-.852.85a16.69 16.69 0 0 0 5.222 5.21l.854-.852a3.215 3.215 0 0 1 3.388-.721c.933.347 1.901.588 2.888.718h.009a3.21 3.21 0 0 1 2.763 3.243v3.3A3.21 3.21 0 0 1 20.788 24Zm-.1-2a1.21 1.21 0 0 0 1.314-1.209V17.446a1.21 1.21 0 0 0-1.038-1.225 15.247 15.247 0 0 1-3.322-.826 1.215 1.215 0 0 0-1.281.27l-1.4 1.4a1 1 0 0 1-1.2.162 18.689 18.689 0 0 1-7.012-7 1 1 0 0 1 .162-1.2l1.4-1.4a1.208 1.208 0 0 0 .27-1.271 15.178 15.178 0 0 1-.829-3.318A1.216 1.216 0 0 0 6.551 2H3.21a1.21 1.21 0 0 0-1.206 1.31 20.919 20.919 0 0 0 3.239 9.124v.007a20.683 20.683 0 0 0 6.329 6.316h.008A21.022 21.022 0 0 0 20.688 22Z"/></svg>