<svg xmlns="http://www.w3.org/2000/svg" width="17" height="16" fill="none"><path fill="#F5B423" d="M8.5 1.238 6.786 4.671A1.994 1.994 0 0 1 5.23 5.763l-3.892.46 2.778 2.452c.535.472.778 1.199.636 1.898l-.728 3.577 3.555-1.84a2.008 2.008 0 0 1 1.84 0l3.555 1.84-.728-3.577a2.005 2.005 0 0 1 .636-1.898l2.778-2.451-3.893-.46a1.994 1.994 0 0 1-1.554-1.093L8.5 1.238Zm0-1c.355 0 .71.185.895.554l1.714 3.432a1 1 0 0 0 .777.546l3.892.46c.859.102 1.193 1.172.545 1.744l-2.778 2.45a1 1 0 0 0-.318.95l.727 3.577a1 1 0 0 1-1.44 1.087l-3.554-1.84a1 1 0 0 0-.92 0l-3.555 1.84a1 1 0 0 1-1.44-1.087l.728-3.577a1 1 0 0 0-.318-.95L.677 6.974C.03 6.402.363 5.332 1.222 5.23l3.892-.46a1 1 0 0 0 .777-.547L7.605.792A.988.988 0 0 1 8.5.238Z"/></svg>