<svg xmlns="http://www.w3.org/2000/svg" width="1700" height="54" fill="none">
  <path fill="#fff"
    d="M1699.5 53.487a.517.517 0 0 1-.12-.014L1557.8 18.764a594.12 594.12 0 0 0-282.93 0 595.78 595.78 0 0 1-141.7 17.116 595.78 595.78 0 0 1-141.7-17.116 594.122 594.122 0 0 0-282.93 0 595.768 595.768 0 0 1-141.7 17.116 595.768 595.768 0 0 1-141.7-17.116 594.12 594.12 0 0 0-282.93 0L.618 53.473a.5.5 0 0 1-.6-.367.5.5 0 0 1 .366-.6l141.583-34.709a595.123 595.123 0 0 1 283.4 0A594.76 594.76 0 0 0 566.833 34.88 594.762 594.762 0 0 0 708.3 17.792a595.122 595.122 0 0 1 283.4 0 594.808 594.808 0 0 0 141.47 17.088 594.792 594.792 0 0 0 141.46-17.088 595.123 595.123 0 0 1 283.4 0l141.58 34.709c.12.029.23.1.3.2a.52.52 0 0 1-.08.66.522.522 0 0 1-.34.126h.01Z" />
</svg>