<svg xmlns="http://www.w3.org/2000/svg" width="62" height="62" fill="none"><path fill="#B92770" d="M62 0H0v62h62V0Z"/><path fill="#fff" d="M29.157 57V37.593h2.137c0 .059.008.118.008.179v19.043c0 .062-.007.123-.01.185h-2.135Zm-13.442-8.89a22.481 22.481 0 0 1-7.507-13.75h2.168c.123.57.23 1.134.369 1.692a20.101 20.101 0 0 0 4.458 8.517c2.603 3 6.032 5.168 9.858 6.234.715.2 1.453.33 2.178.5.046.012.118.064.118.1.008.69 0 1.379 0 2.1a22.31 22.31 0 0 1-11.642-5.392Zm17.393 3.217a20.273 20.273 0 0 0 11.208-5.753 20.315 20.315 0 0 0 5.75-11.221h2.16a22.622 22.622 0 0 1-19.118 19.134v-2.16Zm.244-10.73c0-.052.084-.124.143-.147a9.65 9.65 0 0 0 2.107-1.11 9.642 9.642 0 0 0 3.58-4.591.19.19 0 0 1 .212-.149c.645.007 1.291 0 1.935 0h.154a11.81 11.81 0 0 1-8.141 8.146c.003-.727 0-1.438.01-2.146v-.004ZM18.972 34.6H21.091a.152.152 0 0 1 .171.118 9.671 9.671 0 0 0 5.035 5.443c.228.11.471.19.7.294.049.023.115.087.115.133.007.707 0 1.415 0 2.122 0 .01-.01.02-.015.03a11.806 11.806 0 0 1-8.125-8.14Zm11.262.123a3.247 3.247 0 0 1-3.236-3.24 3.247 3.247 0 0 1 3.241-3.231 3.188 3.188 0 0 1 3.169 3.248 3.183 3.183 0 0 1-3.171 3.224h-.003Zm6.336-2.16h-.23v-2.15h19.407v2.14c-.079 0-.157.01-.236.01H36.57Zm-31.822-.008v-2.13h19.366v2.13H4.748Zm45.292-4.09A20.193 20.193 0 0 0 46.523 20a20.387 20.387 0 0 0-6.278-5.76 20.09 20.09 0 0 0-6.551-2.47l-.577-.108V9.487a22.2 22.2 0 0 1 11.133 4.95 22.518 22.518 0 0 1 8.012 14.18c-.08 0-.134.008-.19.008h-1.841c-.123.003-.169-.031-.191-.16Zm-39.772.161H8.3a.614.614 0 0 1-.087-.018 22.532 22.532 0 0 1 6.736-13.043 22.3 22.3 0 0 1 12.4-6.055v2.15c-.3.057-.6.115-.9.177a20.083 20.083 0 0 0-7.27 3.065 20.418 20.418 0 0 0-7.092 8.245 19.968 19.968 0 0 0-1.675 5.345c-.016.095-.042.138-.14.138l-.004-.004Zm10.79-.246c-.645-.006-1.291 0-1.935 0h-.151a11.834 11.834 0 0 1 8.148-8.147v2.072a.215.215 0 0 1-.164.243 9.65 9.65 0 0 0-5.684 5.683.2.2 0 0 1-.21.154l-.004-.005Zm18.138-.133a9.637 9.637 0 0 0-5.762-5.732c-.026-.01-.052-.025-.082-.038v-2.237a11.8 11.8 0 0 1 8.142 8.136H39.386a.175.175 0 0 1-.192-.129h.002Zm-10.029-2.865V6h2.127v19.382h-2.127Z"/></svg>