<svg width="18" height="16" viewBox="0 0 18 16" fill="none" xmlns="http://www.w3.org/2000/svg">
<path d="M8.11494 0.683823C8.19977 0.522573 8.32705 0.387564 8.48302 0.293379C8.63899 0.199195 8.81773 0.149414 8.99994 0.149414C9.18214 0.149414 9.36088 0.199195 9.51686 0.293379C9.67283 0.387564 9.80011 0.522573 9.88494 0.683823L11.7529 4.23782C11.829 4.38235 11.9393 4.50604 12.0743 4.59808C12.2092 4.69012 12.3646 4.74771 12.5269 4.76582L16.6809 5.23282C16.8754 5.25466 17.0593 5.33308 17.2096 5.45839C17.36 5.58369 17.4702 5.75036 17.5268 5.93774C17.5833 6.12511 17.5836 6.32496 17.5276 6.51251C17.4717 6.70006 17.3619 6.86706 17.2119 6.99282L14.3119 9.41982C14.1726 9.53668 14.0679 9.6893 14.0088 9.86127C13.9498 10.0332 13.9388 10.2181 13.9769 10.3958L14.7449 13.9818C14.7843 14.1655 14.7712 14.3565 14.707 14.533C14.6429 14.7095 14.5303 14.8644 14.3822 14.9799C14.2342 15.0954 14.0566 15.1669 13.8697 15.1861C13.6829 15.2054 13.4945 15.1717 13.3259 15.0888L9.43894 13.1758C9.30157 13.1082 9.15053 13.0731 8.99744 13.0731C8.84435 13.0731 8.6933 13.1082 8.55594 13.1758L4.67094 15.0888C4.5024 15.1717 4.31394 15.2054 4.12713 15.1861C3.94032 15.1669 3.76271 15.0954 3.61463 14.9799C3.46656 14.8644 3.35401 14.7095 3.28986 14.533C3.22572 14.3565 3.21257 14.1655 3.25194 13.9818L4.01994 10.3998C4.0581 10.2221 4.04708 10.0372 3.98805 9.86528C3.92902 9.69331 3.82423 9.54068 3.68494 9.42382L0.784937 6.99682C0.634969 6.87106 0.525201 6.70406 0.469239 6.51651C0.413278 6.32896 0.413582 6.12911 0.470114 5.94174C0.526647 5.75436 0.636922 5.58769 0.787273 5.46239C0.937624 5.33708 1.12144 5.25866 1.31594 5.23682L5.46994 4.76982C5.63226 4.75171 5.78768 4.69412 5.9226 4.60208C6.05753 4.51004 6.16785 4.38635 6.24394 4.24182L8.11494 0.683823Z" fill="#F5B423"/>
</svg>
