<svg xmlns="http://www.w3.org/2000/svg" width="62" height="62" fill="none"><path fill="#B92770" d="M62.008 0h-62v62h62V0Z"/><path fill="#fff" d="M43.356 52.7a3.616 3.616 0 0 1-1.328-.97.878.878 0 0 0-.98-.315c-.51.148-1.016.31-1.526.45-.51.141-.509.133-.786-.441l.66-.21c.5-.164 1-.364 1.516-.48.558-.125.637-.483.676-.957a11.11 11.11 0 0 1 .32-2.329 5.024 5.024 0 0 1 2.552-2.974c.147-.06.298-.111.451-.152-.374 1.8-.358 3.583-1.354 5.178.755-.6 1.546-1.156 2.243-1.811a1.162 1.162 0 0 0 .1-.978 6.464 6.464 0 0 1 1.168-6.187c.157-.17.324-.33.5-.481.143 1.9.62 3.624.2 5.393l.118.063c.468-.666.898-1.357 1.29-2.07a1.221 1.221 0 0 0-.213-.937 6.772 6.772 0 0 1-.4-6.394 1.16 1.16 0 0 1 .294-.428c.716 1.694 1.61 3.313 1.607 5.248.22-.635.391-1.293.671-1.9a1.908 1.908 0 0 0-.66-2.506 5.486 5.486 0 0 1-1.67-3.753 21.751 21.751 0 0 1-.013-2.2l.261-.067c1.075 1.424 2.357 2.718 2.952 4.5.043-.9.1-1.795.12-2.693a.963.963 0 0 0-.638-.9c-2.327-1.11-3.044-3.14-3.258-5.458.014-.121.04-.241.08-.357 1.294 1.109 2.767 1.905 3.52 3.451l.142-.048c-.185-.94-.345-1.887-.579-2.816a.8.8 0 0 0-.592-.405c-2.056-.18-3.118-1.515-3.912-3.172a5.787 5.787 0 0 1-.423-1.159 12.853 12.853 0 0 1 4.12 1.915 22.301 22.301 0 0 0-1.04-2.276c-.118-.2-.643-.287-.953-.241a3.941 3.941 0 0 1-3.384-1.116 6.87 6.87 0 0 1-1.185-1.556h.606a7.6 7.6 0 0 1 3.69.612 17.779 17.779 0 0 0-1.243-1.684c-.135-.146-.606-.126-.852-.023a4.076 4.076 0 0 1-4.7-1.439.557.557 0 0 1-.056-.138c.505-.448 2.736-.6 3.914-.269a2.524 2.524 0 0 0-1.712-1.234 4.347 4.347 0 0 1-3.2-2.514 12.847 12.847 0 0 1-.51-1.283c.094-.054.128-.092.15-.085a8.1 8.1 0 0 1 3.565 1.684 2.4 2.4 0 0 1 .83 1.736.6.6 0 0 0 .17.39c.6.58 1.211 1.143 1.81 1.7a8.085 8.085 0 0 1-.676-5.282l.162-.085c.364.41.758.8 1.091 1.228a6.187 6.187 0 0 1 1.408 3.771 2.901 2.901 0 0 1-.327 1.295 1.2 1.2 0 0 0 .08 1.359c.423.61.824 1.234 1.28 1.856a7.218 7.218 0 0 1 .7-5.253c.11.1.207.144.253.221a8.912 8.912 0 0 1 1.18 5.337c-.09.495-.3.96-.614 1.354a1.148 1.148 0 0 0-.215 1.04c.231.734.528 1.45.83 2.177a6.458 6.458 0 0 1 1.856-5.117c.163.42.283.856.358 1.3.092 1.203.117 2.41.075 3.615a3.18 3.18 0 0 1-1.142 2.2 1.408 1.408 0 0 0-.433 1.375c.1.7.153 1.4.256 2.132a7.036 7.036 0 0 1 3.077-4.646c.057.203.1.41.125.62a9.557 9.557 0 0 1-1.042 4.784 2.518 2.518 0 0 1-1.548 1.39c-.435.126-.478.5-.51.844-.09.937-.149 1.877-.218 2.806.286-.42.566-.878.893-1.3a6.163 6.163 0 0 1 2.764-2.032c.164-.041.331-.064.5-.066v.606c-.468 1.055-.893 2.13-1.42 3.157a3.595 3.595 0 0 1-1.059 1.219 3.6 3.6 0 0 1-1.474.6.847.847 0 0 0-.748.5c-.437 1.106-.837 2.224-1.306 3.487a5.92 5.92 0 0 1 4.882-2.1c-.116.438-.29.858-.517 1.25a16.865 16.865 0 0 1-2.1 2.324 2.894 2.894 0 0 1-2.806.558.999.999 0 0 0-.8.353c-.573.71-1.077 1.475-1.654 2.288a5.8 5.8 0 0 1 5.338-.028c-.25.321-.525.622-.822.9a6 6 0 0 1-4.03 1.538 6.905 6.905 0 0 1-1.52-.5c-.253-.075-.612-.2-.78-.088-.737.478-1.42 1.032-2.194 1.613a5.948 5.948 0 0 1 5.036 1.6 3.994 3.994 0 0 1-.663.507 6.877 6.877 0 0 1-2.856.677 5.484 5.484 0 0 1-1.799-.298Zm-30.023-.345a4.72 4.72 0 0 1-.7-.486 5.883 5.883 0 0 1 4.94-1.73c-.307-.208-.62-.4-.917-.623a11.56 11.56 0 0 0-1.1-.832c-.212-.12-.632-.193-.775-.075a2.938 2.938 0 0 1-2.726.492 6.086 6.086 0 0 1-3.545-2.086 2.933 2.933 0 0 1-.159-.28 5.667 5.667 0 0 1 5.268.04c-.592-.828-1.13-1.621-1.715-2.38a.724.724 0 0 0-.9-.245 2.549 2.549 0 0 1-2.179-.275A6.759 6.759 0 0 1 5.97 40.66a4.49 4.49 0 0 1-.174-.655 5.878 5.878 0 0 1 4.826 2.087c-.46-1.246-.853-2.35-1.282-3.441a.725.725 0 0 0-.784-.517 1.978 1.978 0 0 1-1.518-.637 8.2 8.2 0 0 1-2.389-4.542 3.2 3.2 0 0 1 0-.48 6.629 6.629 0 0 1 4.134 3.522c-.07-.945-.136-1.856-.207-2.767a1.057 1.057 0 0 0-.757-1.052 2.483 2.483 0 0 1-1.118-.988 8.97 8.97 0 0 1-1.236-5.23c.025-.159.061-.315.11-.468a7.108 7.108 0 0 1 3.113 4.62c.087-.84.2-1.68.243-2.521a1.077 1.077 0 0 0-.29-.771c-1.4-1.257-1.51-2.887-1.395-4.564.088-.8.222-1.594.4-2.379.016-.089.1-.166.181-.3a6.521 6.521 0 0 1 1.835 5.069c.276-.768.6-1.524.8-2.311.07-.271-.135-.62-.248-.922a6.057 6.057 0 0 1-.612-1.569 9.174 9.174 0 0 1 1.055-4.875c.082-.158.2-.3.363-.54a7.451 7.451 0 0 1 .771 5.34c.481-.729.988-1.442 1.426-2.194a.877.877 0 0 0 .015-.77 3.303 3.303 0 0 1-.256-2.872 7.41 7.41 0 0 1 2.445-3.755 8.143 8.143 0 0 1-.638 5.416c.61-.568 1.254-1.159 1.887-1.761a.4.4 0 0 0 .092-.274 2.507 2.507 0 0 1 1.017-1.958 11.13 11.13 0 0 1 3.528-1.606 5.621 5.621 0 0 1-1.218 2.54 4.844 4.844 0 0 1-2.757 1.533 4.045 4.045 0 0 0-1.529 1.1c1.387-.438 2.68-.044 4.1.192a4.033 4.033 0 0 1-2.915 1.9 4.842 4.842 0 0 1-1.759-.17c-.845-.228-.922-.253-1.443.468-.236.33-.46.668-.69 1-.047.07-.085.143-.2.339 1.4-.832 2.84-.745 4.287-.837 0 .108.025.187 0 .235a4.714 4.714 0 0 1-3.556 2.547 5.747 5.747 0 0 1-1.175-.062.786.786 0 0 0-.914.543c-.256.674-.563 1.329-.817 2.02 1.162-1.036 2.65-1.374 4-1.986l.128.11c-.182.42-.346.85-.55 1.258a5.178 5.178 0 0 1-1.892 2.342 5.367 5.367 0 0 1-1.559.588c-.832.174-.97.236-1.136 1.048a22.37 22.37 0 0 0-.356 2.306c.811-1.518 2.284-2.324 3.52-3.377l.167.056c-.06.5-.087 1.011-.189 1.5a5.918 5.918 0 0 1-2.168 3.673c-.267.184-.55.342-.847.472a1.138 1.138 0 0 0-.72 1.168c.051.822.09 1.645.187 2.488.523-1.784 1.818-3.064 2.865-4.5l.181.017c.051.43.14.86.148 1.292a6.6 6.6 0 0 1-.949 3.72 8.791 8.791 0 0 1-1.178 1.387 1.306 1.306 0 0 0-.418 1.526c.317.806.546 1.644.863 2.458-.028-1.907.86-3.53 1.5-5.225l.182-.028c.207.46.385.93.535 1.41a6.553 6.553 0 0 1-.737 5.391 1.15 1.15 0 0 0 .03 1.488c.384.484.7 1.02 1.1 1.515-.363-1.785.118-3.505.238-5.388.166.113.32.241.463.382a6.38 6.38 0 0 1 1.216 6.217 1.007 1.007 0 0 0 .363 1.287c.684.487 1.333 1.022 2.027 1.5a12.701 12.701 0 0 1-1.3-5.1 3.62 3.62 0 0 1 1.6 1.024 5.288 5.288 0 0 1 1.638 3.906c-.015 1.206 0 1.216 1.16 1.621.542.19 1.1.332 1.666.5-.117.43-.29.638-.742.48-.5-.175-1.016-.309-1.523-.462a.784.784 0 0 0-1.01.333 2.54 2.54 0 0 1-1.683 1.073 6.637 6.637 0 0 1-1.423.156c-.962 0-1.912-.21-2.785-.614Zm9.221-9.52a1.756 1.756 0 0 1-.446-1.323v-.06l.3-1.701c.16-.891.319-1.786.478-2.683.041-.23.084-.458.128-.688.094-.5.182-.976.251-1.454a618.915 618.915 0 0 0-4.6-4.326l-.089-.083a1.746 1.746 0 0 1-.637-1.94 1.79 1.79 0 0 1 1.623-1.12l.066-.009c.926-.126 1.868-.258 2.777-.384 1.208-.169 2.457-.343 3.686-.508.661-1.312 1.344-2.637 2-3.921l.91-1.772a1.784 1.784 0 0 1 1.612-1.144 1.78 1.78 0 0 1 1.612 1.142l.007.01c.309.604.618 1.207.93 1.81.652 1.27 1.327 2.58 1.981 3.878 1.183.161 2.383.327 3.545.487l2.972.412h.007a1.778 1.778 0 0 1 1.631 1.132 1.752 1.752 0 0 1-.624 1.917 594.49 594.49 0 0 0-1.886 1.766c-.924.868-1.879 1.766-2.826 2.646.407 2.15.783 4.277 1.12 6.316a1.852 1.852 0 0 1-.7 1.8 1.7 1.7 0 0 1-.889.225 2.2 2.2 0 0 1-.953-.21 319.644 319.644 0 0 1-5.928-2.983 671.426 671.426 0 0 1-5.96 3.02 2.111 2.111 0 0 1-.95.24 1.582 1.582 0 0 1-1.148-.492Zm7.326-19.28a514.282 514.282 0 0 0-2.015 3.944 1.779 1.779 0 0 1-1.439 1.034c-1.246.167-2.51.345-3.735.515l-2.4.332a598.28 598.28 0 0 1 4.434 4.177 1.758 1.758 0 0 1 .555 1.429c-.079.6-.19 1.195-.3 1.768-.04.223-.084.446-.123.669-.159.895-.318 1.791-.478 2.682l-.172.97c1.8-.9 3.7-1.861 5.56-2.82.265-.142.56-.22.86-.224.298.004.59.08.852.222 2.19 1.127 3.924 2 5.558 2.8-.318-1.9-.67-3.87-1.047-5.862a1.724 1.724 0 0 1 .57-1.69c.96-.891 1.931-1.805 2.871-2.687.51-.48 1.022-.958 1.533-1.437l-2.54-.352c-1.195-.166-2.429-.338-3.643-.5a1.71 1.71 0 0 1-1.367-.978 576.286 576.286 0 0 0-2.02-3.95l-.768-1.5-.746 1.457Z"/></svg>