<svg xmlns="http://www.w3.org/2000/svg" width="61" height="17" fill="none"><path fill="#727174" fill-rule="evenodd" d="M47.056 2.916c2.138-.1 4.47.778 3.985 3.4l-1.361 6.319h-3.11l.194-1.069c-1.652 1.749-5.93 1.652-5.248-2.235.486-2.333 2.819-3.013 6.318-3.013.194-1.069-.486-1.264-1.652-1.264a12.73 12.73 0 0 0-3.013.68l.292-2.235a16.317 16.317 0 0 1 3.595-.583Zm.194 6.512c0-.292.1-.68.194-.583h-.778c-.68 0-1.555 0-1.944.583-.39.778.194 1.166.875 1.166.778-.097 1.459-.388 1.653-1.166ZM53.665 0h3.207l-2.624 12.635h-3.11L53.665 0ZM39.183 0c1.652 0 3.693 2.138 3.207 4.957a4.619 4.619 0 0 1-4.762 3.788h-2.433l-.875 3.888h-3.4L33.447-.002 39.183 0Zm-.1 4.374a1.1 1.1 0 0 0-1.166-1.458h-1.65l-.68 2.916h1.555a1.984 1.984 0 0 0 1.944-1.458h-.003ZM16.732 2.916c2.138-.1 4.568.778 4.082 3.4l-1.361 6.319h-3.11l.194-1.069c-1.652 1.749-5.832 1.652-5.151-2.235.486-2.333 2.819-3.013 6.22-3.013.194-1.069-.486-1.264-1.652-1.264-1.03.092-2.044.32-3.013.68l.292-2.235a14.446 14.446 0 0 1 3.499-.583Zm.292 6.512c0-.292.1-.68.194-.583h-.778c-.583 0-1.458 0-1.847.583-.486.778.1 1.166.778 1.166.778-.097 1.458-.388 1.652-1.166Zm5.054-6.512h3.11l.486 5.443 3.11-5.443h3.21l-7.39 13.607h-3.5l2.237-4.078-1.263-9.529ZM9.054 0c1.652 0 3.693 2.138 3.11 4.957A4.619 4.619 0 0 1 7.4 8.745H4.97l-.876 3.89h-3.4L3.222 0h5.832Zm-.1 4.374a1.1 1.1 0 0 0-1.16-1.458H6.139l-.68 2.916h1.555a1.984 1.984 0 0 0 1.943-1.458h-.002Zm48.6-2.333V.681h-.486V.487h1.264v.194h-.486v1.364l-.292-.004Zm.972 0V.486h.292l.389 1.069a.34.34 0 0 0 .1.194c0-.1 0-.1.1-.292l.389-1.069h.292v1.557h-.203V.584l-.49 1.361h-.292L58.617.584v1.361h-.1l.009.096Z" clip-rule="evenodd"/></svg>