<svg xmlns="http://www.w3.org/2000/svg" width="25" height="20" fill="none"><path fill="#000" d="M25 2.4a9.893 9.893 0 0 1-2.947.8A5.188 5.188 0 0 0 24.288.4a9.834 9.834 0 0 1-3.251 1.2A5.124 5.124 0 0 0 12.195 5c-.017.402.018.806.102 1.2A14.47 14.47 0 0 1 1.728.9a5.524 5.524 0 0 0-.711 2.6 5.042 5.042 0 0 0 2.235 4.2A5.834 5.834 0 0 1 1.017 7v.1a5.147 5.147 0 0 0 4.166 5 6.04 6.04 0 0 1-1.321.2 3.872 3.872 0 0 1-1.017-.1 5.021 5.021 0 0 0 4.777 3.499 10.11 10.11 0 0 1-6.402 2.2 5.027 5.027 0 0 1-1.22-.1 14.834 14.834 0 0 0 7.833 2.2 14.412 14.412 0 0 0 14.634-14.4v-.7A8.58 8.58 0 0 0 25 2.4Z"/></svg>