<svg xmlns="http://www.w3.org/2000/svg" width="30" height="33" fill="none"><path fill="#000" d="M26.666 31.35v-3.3a4.925 4.925 0 0 0-1.464-3.5 5.026 5.026 0 0 0-3.536-1.451H8.334a5.026 5.026 0 0 0-3.536 1.45 4.925 4.925 0 0 0-1.464 3.5v3.302c0 .437-.175.856-.488 1.166a1.675 1.675 0 0 1-1.816.358 1.668 1.668 0 0 1-.903-.893A1.634 1.634 0 0 1 0 31.35v-3.302a8.219 8.219 0 0 1 2.444-5.83 8.384 8.384 0 0 1 5.89-2.419h13.332a8.385 8.385 0 0 1 5.89 2.418A8.219 8.219 0 0 1 30 28.05v3.302a1.633 1.633 0 0 1-.489 1.166 1.667 1.667 0 0 1-1.179.483c-.442 0-.866-.174-1.178-.483a1.64 1.64 0 0 1-.488-1.167Zm-20-23.1a8.217 8.217 0 0 1 2.445-5.832 8.384 8.384 0 0 1 11.78.002 8.218 8.218 0 0 1 2.443 5.831 8.217 8.217 0 0 1-2.443 5.832 8.382 8.382 0 0 1-11.778 0A8.217 8.217 0 0 1 6.67 8.25l-.004-.001Zm3.332 0c0 1.312.527 2.571 1.464 3.5a5.026 5.026 0 0 0 3.536 1.45 5.026 5.026 0 0 0 3.536-1.45 4.925 4.925 0 0 0 1.464-3.5 4.925 4.925 0 0 0-1.464-3.5 5.026 5.026 0 0 0-7.07.001 4.925 4.925 0 0 0-1.462 3.5l-.004-.001Z"/></svg>