<svg xmlns="http://www.w3.org/2000/svg" width="1700" height="32" fill="none">
  <path fill="#fff"
    d="M1699.51 32a.835.835 0 0 1-.12-.009l-141.59-21.03c-92.93-13.806-189.99-13.806-282.93 0-46.37 6.885-93.95 10.367-141.7 10.37-47.75-.003-95.32-3.485-141.699-10.37-92.934-13.806-189.997-13.806-282.931 0-46.377 6.885-93.952 10.367-141.701 10.37-47.749-.003-95.324-3.485-141.701-10.37-92.935-13.806-189.997-13.806-282.932 0L.613 31.99a.787.787 0 0 1-.375-.036c-.112-.042-.193-.108-.225-.186-.03-.077-.008-.16.06-.227a.555.555 0 0 1 .306-.136l141.584-21.032c93.089-13.828 190.313-13.828 283.402 0 46.301 6.873 93.797 10.349 141.467 10.352 47.67-.004 95.167-3.48 141.468-10.355 93.089-13.828 190.312-13.828 283.401 0 46.299 6.874 93.799 10.35 141.469 10.355 47.67-.004 95.16-3.48 141.46-10.355 93.09-13.828 190.31-13.828 283.4 0l141.59 21.032c.12.017.22.06.29.121.07.061.1.135.09.209a.328.328 0 0 1-.17.19.707.707 0 0 1-.33.077h.01Z" />
</svg>