<svg xmlns="http://www.w3.org/2000/svg" width="62" height="62" fill="none"><path fill="#B92770" d="M62 0H0v62h62V0Z"/><path fill="#fff" d="M27.107 55.374a55.2 55.2 0 0 1-9.693-5.489l-.81-.531a2.638 2.638 0 0 0-1.25-.562 1.52 1.52 0 0 0-.881.39c-1.127.815-2.291 1.518-3.637 2.331-.612.37-1.245.751-1.924 1.173a1.001 1.001 0 0 1-1.505-1.066l4.71-21.24a1 1 0 0 1 .847-.774 1 1 0 0 1 .404.031l20.794 5.94a1 1 0 0 1 .339 1.751l-6.055 4.7c1.907.52 3.874.788 5.851.8a20.428 20.428 0 0 0 10.523-2.99 42.483 42.483 0 0 0 9.116-7.567 1 1 0 0 1 1.676.987 63.097 63.097 0 0 1-4.159 10.643 28.143 28.143 0 0 1-7.247 9.036 16.178 16.178 0 0 1-10.338 3.8 18.278 18.278 0 0 1-6.761-1.363Zm-9.406-7.693.813.535a53.629 53.629 0 0 0 9.333 5.3 16.31 16.31 0 0 0 6.025 1.224 14.227 14.227 0 0 0 9.083-3.361 26.163 26.163 0 0 0 6.732-8.41 48.975 48.975 0 0 0 2.732-6.395 38.075 38.075 0 0 1-6.587 4.99A22.387 22.387 0 0 1 34.3 44.827a25.961 25.961 0 0 1-8.313-1.46 1 1 0 0 1-.292-1.738l6.023-4.675-17.878-5.107c-1.322 5.966-2.611 11.776-3.972 17.911 1.281-.772 2.391-1.443 3.431-2.2a3.448 3.448 0 0 1 2.055-.769c.852.061 1.67.371 2.347.892Zm29.772-16.279-2.206-.635-18.549-5.34a1 1 0 0 1-.336-1.752l5.928-4.6a15.115 15.115 0 0 0-5.543-1 21.68 21.68 0 0 0-9.976 2.658 33.154 33.154 0 0 0-9.966 8.317 1 1 0 0 1-1.73-.918 60.393 60.393 0 0 1 3.324-9.057 35.061 35.061 0 0 1 5.284-8.21 19.89 19.89 0 0 1 6.171-4.863 16.2 16.2 0 0 1 7.2-1.67c2.888.042 5.734.694 8.354 1.91a48.276 48.276 0 0 1 7.732 4.682c.44.3.892.62 1.336.923.278.232.607.394.961.472.22-.028.429-.118.6-.26 1.258-.873 2.573-1.685 3.967-2.544.625-.383 1.269-.782 1.945-1.207a1 1 0 0 1 1.51 1.064l-4.753 21.286a1 1 0 0 1-1.253.744ZM34.695 17.973a1 1 0 0 1 .525.8 1 1 0 0 1-.382.877l-5.674 4.4 16.656 4.8 1.186.34 4-17.93c-1.345.83-2.617 1.615-3.81 2.443-.5.382-1.108.598-1.737.618a3.75 3.75 0 0 1-2.091-.823c-.449-.309-.905-.625-1.346-.93a46.975 46.975 0 0 0-7.406-4.5 18.587 18.587 0 0 0-7.54-1.736 14.24 14.24 0 0 0-6.32 1.464 17.899 17.899 0 0 0-5.545 4.383 33.035 33.035 0 0 0-4.982 7.75 49.218 49.218 0 0 0-1.846 4.5 33.01 33.01 0 0 1 7.478-5.467 23.672 23.672 0 0 1 10.907-2.889c2.759-.033 5.483.62 7.927 1.9Z"/></svg>