<svg xmlns="http://www.w3.org/2000/svg" width="34" height="28" fill="none"><path fill="#727174" d="M7.819 25.774a.81.81 0 1 0 .839-.763.802.802 0 0 0-.839.763Zm2.166-1.338v2.675h-.582v-.325a1.014 1.014 0 0 1-.845.392 1.407 1.407 0 0 1 0-2.81 1.013 1.013 0 0 1 .845.392v-.325l.582.001Zm19.656 1.338a.81.81 0 1 0 .839-.763.802.802 0 0 0-.839.763Zm2.166-2.413v3.749h-.583v-.325a1.015 1.015 0 0 1-.845.392 1.407 1.407 0 0 1 0-2.81 1.014 1.014 0 0 1 .845.392v-1.4l.583.002Zm-14.6 1.528a.69.69 0 0 0-.711.649h1.388a.664.664 0 0 0-.679-.648l.002-.001Zm.011-.522a1.283 1.283 0 0 1 1.27 1.4c0 .078-.006.151-.012.224h-1.988a.743.743 0 0 0 .8.655c.283-.005.557-.103.778-.28l.285.431c-.308.256-.7.39-1.1.375a1.406 1.406 0 0 1-.039-2.81l.006.005Zm7.024 1.4a.81.81 0 1 0 .839-.763.802.802 0 0 0-.839.763Zm2.166-1.338v2.681h-.584v-.325a1.015 1.015 0 0 1-.845.392 1.407 1.407 0 0 1 0-2.81 1.016 1.016 0 0 1 .845.392v-.325l.584-.005Zm-5.451 1.338a1.35 1.35 0 0 1 1.427-1.4 1.4 1.4 0 0 1 .962.319l-.279.47a1.176 1.176 0 0 0-.7-.241.859.859 0 0 0 0 1.713c.253-.003.499-.087.7-.241l.279.47a1.4 1.4 0 0 1-.962.319 1.35 1.35 0 0 1-1.427-1.4v-.009Zm7.5-1.4c.141 0 .281.025.414.073l-.179.548a.945.945 0 0 0-.364-.067c-.38 0-.571.246-.571.689v1.5h-.583v-2.675h.576v.325a.79.79 0 0 1 .703-.392l.004-.001Zm-15.592.282-.253.47a1.726 1.726 0 0 0-.834-.229c-.319 0-.509.118-.509.313 0 .179.2.23.454.263l.274.04c.582.084.935.33.935.8 0 .509-.448.873-1.22.873a1.928 1.928 0 0 1-1.157-.347l.274-.453c.257.19.57.29.89.28.4 0 .61-.118.61-.325 0-.151-.151-.235-.47-.28l-.275-.039c-.6-.084-.923-.353-.923-.789 0-.532.436-.856 1.114-.856a2 2 0 0 1 1.086.28l.004-.001Zm7.505-.28c.142 0 .282.025.415.073l-.179.548a.944.944 0 0 0-.364-.067c-.38 0-.571.246-.571.689v1.5h-.582v-2.675h.577v.325a.789.789 0 0 1 .701-.393h.003Zm-4.964.067v.532h-.951v1.209c0 .268.095.448.386.448.182-.006.359-.058.515-.151l.168.5c-.218.136-.47.208-.728.207-.688 0-.929-.37-.929-.99v-1.22h-.543v-.532h.542v-.812h.588v.812l.952-.003Zm-8.7 2.675h-.589v-1.489c0-.454-.19-.705-.587-.705a.632.632 0 0 0-.655.711v1.483h-.588v-1.489c0-.454-.2-.705-.582-.705a.627.627 0 0 0-.655.711v1.483h-.587v-2.675h.582v.33a.885.885 0 0 1 .783-.4.982.982 0 0 1 .884.476 1.036 1.036 0 0 1 .94-.476 1 1 0 0 1 1.052 1.063l.002 1.682ZM17.949 1.833c-.077-.064-.107-.112-.1-.154a10.142 10.142 0 1 1 0 16.924c.02-.04.05-.074.086-.1a9.506 9.506 0 0 0 1.1-1.061 11.1 11.1 0 0 0 2.086-3.454c.319-.837.531-1.71.632-2.6.216-1.965-.1-3.952-.915-5.754a10.644 10.644 0 0 0-2.889-3.801Zm-4.633 8.294a10.162 10.162 0 0 1 3.865-7.981.228.228 0 0 1 .162.066 10.25 10.25 0 0 1 2.752 3.474c.418.858.71 1.771.867 2.712.11.63.162 1.268.153 1.907a10.262 10.262 0 0 1-3.764 7.762.287.287 0 0 1-.133.072 10.163 10.163 0 0 1-3.902-8.012ZM.861 9.391a10.16 10.16 0 0 1 15.733-7.707c.006.042-.034.082-.1.133-.182.15-.361.306-.529.472a11.012 11.012 0 0 0-3.342 7.6c-.02.848.06 1.696.238 2.525.166.79.42 1.559.754 2.293a10.821 10.821 0 0 0 2.9 3.812c.03.022.053.05.071.082A10.158 10.158 0 0 1 .858 9.451c.003-.022.003-.041.003-.06Z"/></svg>