<svg xmlns="http://www.w3.org/2000/svg" width="34" height="33" fill="none"><path fill="#000" d="M25.474 30.132c0-.568.166-1.123.477-1.595.312-.473.755-.84 1.273-1.058a2.807 2.807 0 0 1 3.093.62 2.901 2.901 0 0 1 .616 3.128 2.864 2.864 0 0 1-1.046 1.29 2.814 2.814 0 0 1-1.576.483 2.826 2.826 0 0 1-2.003-.842 2.893 2.893 0 0 1-.834-2.026Zm-15.597 0c0-.567.167-1.122.478-1.594.312-.471.755-.839 1.272-1.056a2.804 2.804 0 0 1 3.09.622c.397.4.667.912.776 1.468.11.557.053 1.133-.161 1.657a2.86 2.86 0 0 1-1.045 1.288 2.812 2.812 0 0 1-3.58-.358 2.887 2.887 0 0 1-.83-2.027Zm-.428-9.204L7.079 8.95c0-.039-.017-.08-.023-.12l-1.18-5.965H1.363a1.41 1.41 0 0 1-.967-.438 1.443 1.443 0 0 1 0-1.99A1.41 1.41 0 0 1 1.364 0h5.672c.33-.002.65.111.906.322.255.21.43.504.496.83l1.191 6.02h22.945a1.406 1.406 0 0 1 1.098.518 1.442 1.442 0 0 1 .303 1.186l-2.27 12.038v.012a4.306 4.306 0 0 1-1.472 2.488 4.217 4.217 0 0 1-2.699.976H13.617a4.22 4.22 0 0 1-2.697-.976 4.306 4.306 0 0 1-1.471-2.486Zm2.783-.561c.064.33.242.628.5.84.26.211.584.324.917.318h13.867c.328 0 .645-.115.899-.325.253-.21.426-.502.49-.827l1.947-10.33H10.188l2.044 10.324Z"/></svg>