<svg xmlns="http://www.w3.org/2000/svg" width="47" height="16" fill="none"><path fill="#727174" fill-rule="evenodd" d="M41.899 9.698h-.841a.335.335 0 0 0-.105.009.044.044 0 0 0-.022.016.137.137 0 0 0-.107-.026h-.978a.139.139 0 0 0-.106.025l-.007-.01a.24.24 0 0 0-.1-.012h-.366c-.084 0-.091-.013-.063-.091.076-.206.146-.414.224-.62a.2.2 0 0 0 .02-.095v-.007c.031-.017.037-.053.048-.083.125-.347.252-.692.377-1.04.01-.026.025-.054 0-.082.035 0 .039-.034.047-.058.212-.587.431-1.171.631-1.762a.156.156 0 0 0 .014-.08c.037-.008.038-.044.049-.071.169-.457.333-.915.5-1.373a.145.145 0 0 0 .01-.052c.006.018.009.036.013.054.017.115.045.227.083.337v.007a.1.1 0 0 0 0 .075 4465.076 4465.076 0 0 0 .882 4.231c.051.242.092.486.158.726a.08.08 0 0 1 .012 0 .277.277 0 0 0-.237 0 .085.085 0 0 0-.026-.017.399.399 0 0 0-.106-.008m4.954 5.143c-.135-.644-.268-1.288-.4-1.932-.1-.463-.2-.925-.293-1.388v-.008l-1.247-5.977a3693.59 3693.59 0 0 1-1.084-5.2c-.013-.06-.031-.08-.094-.08h-3.161a.4.4 0 0 0-.153.014 1.53 1.53 0 0 0-.752.244c-.026.014-.053.027-.077.043-.327.228-.57.557-.691.937l-.727 1.735c-.031.072-.064.143-.093.215l-.383.928c-.046.107-.095.212-.139.32l-.464 1.135a.486.486 0 0 0-.06.13l-.544 1.307-.074.17-.389.94c-.083.194-.167.387-.248.582l-.5 1.2c-.036.082-.073.163-.107.245l-.482 1.16c-.208.477-.407.957-.6 1.439a.098.098 0 0 0-.015.019l-.751 1.8a.183.183 0 0 0-.029.09h3.8a.491.491 0 0 1 .057 0c.084.016.121-.02.148-.1.088-.262.187-.52.281-.78l.3-.85c.048-.125.1-.251.142-.38a.095.095 0 0 1 .04-.06.094.094 0 0 1 .071-.015h.432c.376.007.752.007 1.128 0 .387.007.773.007 1.16 0 .4.007.797.007 1.192 0 .258 0 .517.006.776 0 .069 0 .092.023.105.085.141.685.285 1.369.425 2.054.008.039.024.049.059.049h3.398c.058 0 .058-.018.048-.066M16.494 3.355c.077-.181.156-.362.232-.544l.368-.892c.06-.124.114-.25.161-.38.045-.09.084-.183.115-.278l.424-.993h-3.915c-.022 0-.049-.012-.066.014l-.134.343c-.085.211-.172.422-.255.633l-.351.9-.375.933c-.111.282-.22.565-.33.847a65.157 65.157 0 0 0-.616 1.554c-.046.111-.093.222-.137.334l-.42 1.076-.588 1.486c-.025.06-.051.119-.075.18l-.513 1.307-.143.345a1.087 1.087 0 0 1-.019-.061l-.184-.984c-.052-.274-.106-.548-.16-.822a.547.547 0 0 0 0-.057l-.225-1.163-.564-3c-.152-.807-.3-1.615-.459-2.419A1.751 1.751 0 0 0 6.522.265H.159C.135.265.104.25.085.28.058.402.031.524 0 .645c0 .028 0 .048.031.057L.648.84a.091.091 0 0 0 .021.011c.493.122.981.262 1.462.424l.449.151c.463.17.912.377 1.342.618a1.7 1.7 0 0 1 .372.346c.15.23.256.485.313.753l.68 2.616 1.558 6.029a1348.21 1348.21 0 0 1 .796 3.084.073.073 0 0 0 .079.037h3.89c.026 0 .045 0 .056-.033.047-.121.1-.241.145-.36.067-.156.136-.312.2-.468.135-.323.267-.646.4-.969a.413.413 0 0 0 .022-.042l.566-1.362c.012-.025.025-.048.035-.072l.554-1.333c.09-.209.18-.418.268-.628.119-.285.236-.571.354-.857.079-.184.16-.367.237-.552l.385-.931a.267.267 0 0 0 .048-.122l.065-.147.033-.065.589-1.419c.133-.314.268-.627.4-.942l.519-1.248M23.203.265h-3.728c-.022 0-.06-.017-.06.03l-.05.23c0 .015-.01.03-.013.046l-.331 1.552c-.056.262-.11.525-.163.788a.052.052 0 0 0-.007.015l-.317 1.49a4.161 4.161 0 0 0-.086.417c-.046.163-.076.33-.11.5l-.31 1.455c-.031.14-.064.28-.094.421l-.235 1.115a.315.315 0 0 0-.017.045l-.273 1.29-.217 1.034c-.042.188-.085.375-.124.564l-.3 1.413c-.025.114-.052.228-.076.341l-.394 1.838c-.007.034-.02.063.037.063h3.684c.033 0 .046-.008.052-.042.012-.063.03-.124.046-.187.07-.32.142-.64.21-.96.042-.19.079-.382.118-.573a.286.286 0 0 0 .013-.036l.31-1.472.1-.44.087-.42c.016-.064.033-.126.046-.19l.28-1.334a.162.162 0 0 0 .013-.029c.115-.533.229-1.066.342-1.6.052-.246.1-.493.152-.74.005-.01.01-.02.013-.03.143-.66.284-1.321.424-1.982.069-.327.136-.654.2-.98a.177.177 0 0 0 .01-.03l.6-2.812c.057-.26.11-.52.168-.786M34.114.623c-.076-.022-.15-.052-.223-.077a9.694 9.694 0 0 0-1.21-.329l-.078-.02a9.86 9.86 0 0 0-1.781-.198l-.4.006v-.006c-.217.012-.434.02-.65.037-.171.01-.342.03-.51.063-.352.04-.7.113-1.04.214-.373.091-.736.22-1.083.386-.323.138-.63.312-.915.517a4.356 4.356 0 0 0-.867.756 1.836 1.836 0 0 0-.207.239c-.214.266-.392.56-.53.873l-.03.057c-.181.413-.294.851-.336 1.3-.063.542.006 1.09.2 1.6.229.552.582 1.045 1.03 1.439.331.306.694.574 1.084.8l.046.032c.306.184.623.349.942.508.144.072.288.141.433.212.152.087.306.173.458.261.246.14.474.307.68.5.206.186.342.436.385.71V10.747a1.21 1.21 0 0 1-.316.669c-.175.166-.378.3-.6.394-.137.059-.281.1-.422.146a4.698 4.698 0 0 1-1.138.115l-.463-.013a7.715 7.715 0 0 1-1.256-.184c-.186-.046-.372-.1-.558-.148-.191-.071-.382-.139-.572-.214-.258-.1-.508-.221-.76-.337-.023-.011-.061-.053-.074.01-.061.289-.12.579-.18.868a.27.27 0 0 0-.014.038 853.62 853.62 0 0 1-.476 2.227.062.062 0 0 0 .048.058c.342.146.696.265 1.057.356.146.044.294.078.445.1.112.032.226.056.342.073.285.057.573.098.863.125.027.014.059 0 .086.014H25.594a.148.148 0 0 0 .068.009h.087c.033.016.07 0 .1.012h.076a.087.087 0 0 0 .04 0 .217.217 0 0 0 .056.008l.76.037v.014h.327v-.014l.033-.005c.063.006.125.006.188 0h.22a.33.33 0 0 0 .136-.012h.054c.333-.023.665-.064.994-.125.183-.028.365-.069.543-.121.37-.08.731-.195 1.078-.347.248-.101.488-.221.718-.358.03.005.049-.019.072-.031.301-.18.583-.39.843-.625a.081.081 0 0 0 .02-.01c.314-.28.584-.605.8-.965.012-.015.024-.03.033-.046a4.517 4.517 0 0 0 .622-2.617 3.37 3.37 0 0 0-.955-2.178 7.599 7.599 0 0 0-2.056-1.45c-.5-.274-1-.522-1.487-.821-.021-.016-.042-.033-.064-.048a2.231 2.231 0 0 1-.55-.5.853.853 0 0 1-.171-.683c.036-.132.094-.257.173-.369a1.8 1.8 0 0 1 .914-.593 4.276 4.276 0 0 1 .818-.136h.018a.427.427 0 0 0 .067-.005h.24l.565.02c.028.013.06 0 .088.012h.077c.027.014.059 0 .086.012.095.022.193.034.29.037a.248.248 0 0 0 .035.011c.314.05.624.12.928.211.33.098.654.218.968.359.024.011.059.048.072-.013l.172-.829a.234.234 0 0 0 .014-.037l.173-.805c.094-.441.19-.882.286-1.322.01-.052 0-.078-.053-.093" clip-rule="evenodd"/></svg>