<svg xmlns="http://www.w3.org/2000/svg" width="62" height="62" fill="none"><path fill="#B92770" d="M62 0H0v62h62V0Z"/><path fill="#fff" d="M27.012 56.566a1.16 1.16 0 0 1-.607-1.163c.008-1.6 0-3.2 0-4.806v-.6a24.842 24.842 0 0 1-8.189-3.042 19.411 19.411 0 0 1-9.573-14.07c-.25-1.487-.289-3.012-.4-4.521a1.05 1.05 0 0 1 .73-1.128 1.042 1.042 0 0 1 1.235.392c.121.226.209.47.26.722a14.505 14.505 0 0 0 6.11 8.945 14.008 14.008 0 0 0 8.235 2.057c.512-.015 1.023-.046 1.59-.071V33.753a1.155 1.155 0 0 1 .6-1.164 1.174 1.174 0 0 1 1.3.184c5 3.572 10.002 7.14 15.008 10.705a1.12 1.12 0 0 1 .005 2.017c-5 3.63-10.004 7.257-15.012 10.88a1.4 1.4 0 0 1-.814.317 1.048 1.048 0 0 1-.478-.126ZM11.884 36.48a16.9 16.9 0 0 0 6.472 7.97 21.878 21.878 0 0 0 8.975 3.465c1 .152 1.255.45 1.258 1.465v4.086l12.388-8.974-12.386-8.832v4.224c0 1.046-.3 1.417-1.355 1.469-1.542.126-3.09.16-4.637.1a14.729 14.729 0 0 1-10.04-4.687c-.265-.28-.519-.568-.777-.852-.014.193.02.387.101.563l.001.003Zm33.04 7.25a1.151 1.151 0 0 1 .1-1.688c.775-.864 1.531-1.745 2.3-2.617l-.1-.166h-2.386c-1.176 0-2.35-.01-3.526.008a1.1 1.1 0 0 0-.594.193 1.078 1.078 0 0 1-1.287.09 1.04 1.04 0 0 1-.46-1.21c.291-1.272.647-2.534.863-3.82.277-1.658.444-3.334.667-5.06h-8.689v2.249c0 .225.011.449-.007.672a1.085 1.085 0 0 1-1.115 1.044 1.056 1.056 0 0 1-1.027-1.07c-.02-.775-.007-1.551-.007-2.326v-.582h-8.563c.038.611.031 1.229.123 1.829.29 1.868.605 3.733.933 5.595.133.752-.128 1.325-.74 1.47-.667.16-1.169-.2-1.36-.967a40.856 40.856 0 0 1-1.105-7.548c-.006-.117-.02-.233-.038-.407h-6.499a1.128 1.128 0 0 1-1.2-.772 1.081 1.081 0 0 1 1.005-1.412c.525-.038 1.055-.013 1.583-.013h4.97l.736-7.812h-.6c-2.129 0-4.258.01-6.388-.012a.623.623 0 0 0-.694.486 21.625 21.625 0 0 0-1.273 5.144 1.125 1.125 0 0 1-.968 1.1 1.015 1.015 0 0 1-1.1-.66 2.44 2.44 0 0 1-.044-.963c.24-2.036.775-4.026 1.588-5.908 3.257-7.361 8.8-11.92 16.611-13.492A22.235 22.235 0 0 1 50.74 17.149a22.545 22.545 0 0 1-.216 21.04 21.31 21.31 0 0 1-3.98 5.4 1.324 1.324 0 0 1-.924.44.997.997 0 0 1-.696-.298Zm3.4-6.646c.322 0 .44-.167.56-.413a21.033 21.033 0 0 0 1.832-5.557c.1-.545.156-1.1.238-1.693-2.747 0-5.4 0-8.05-.006-.326 0-.339.18-.354.426-.044.72-.069 1.445-.167 2.158-.23 1.665-.5 3.325-.768 5.045.075.015.15.024.226.029h3.083c1.133.002 2.266.006 3.4.01Zm-6.04-17.674a2.316 2.316 0 0 0-.282.026c.244 2.6.49 5.174.733 7.758H51c.016-.072.027-.144.033-.217a19.955 19.955 0 0 0-1.51-7.277.64.64 0 0 0-.5-.281c-1.225-.01-2.449-.015-3.673-.013l-3.066.004ZM21.07 27.188h8.548v-7.746h-7.792a37.6 37.6 0 0 0-.755 7.747v-.001Zm10.786-.006h8.584a37.628 37.628 0 0 0-.77-7.753h-7.814v7.753ZM37.807 9.02a23.603 23.603 0 0 1 3.41 7.622.674.674 0 0 0 .8.6c1.89-.03 3.781-.012 5.67-.012h.674a20.632 20.632 0 0 0-11.41-9.35c.348.459.612.797.856 1.14Zm-18.29 8.218a.65.65 0 0 0 .762-.578 22.81 22.81 0 0 1 4.122-8.57c.023-.03.018-.08.028-.131-3.794.763-10.05 5.9-11.245 9.268h3.441c.965-.005 1.93-.002 2.891.011Zm9.587 0c.464.008.563-.143.561-.584-.018-3.031-.01-6.06-.01-9.09 0-.152-.014-.3-.024-.534-.294.1-.553.166-.794.273a7.727 7.727 0 0 0-2.944 2.412 19.693 19.693 0 0 0-3.177 6.307c-.12.37-.225.744-.354 1.175.238.015.4.032.564.032H26.26c.95-.006 1.896-.004 2.845.008v.002Zm2.742-.043h7.262a3.761 3.761 0 0 0-.113-.48c-.517-1.362-.97-2.756-1.576-4.077a11.901 11.901 0 0 0-3.48-4.586 4.872 4.872 0 0 0-2.093-1.008v10.15Z"/></svg>